<?xml version="1.0" encoding="UTF-8" standalone="no"?>
<svg
   xmlns:dc="http://purl.org/dc/elements/1.1/"
   xmlns:cc="http://creativecommons.org/ns#"
   xmlns:rdf="http://www.w3.org/1999/02/22-rdf-syntax-ns#"
   xmlns:svg="http://www.w3.org/2000/svg"
   xmlns="http://www.w3.org/2000/svg"
   xmlns:sodipodi="http://sodipodi.sourceforge.net/DTD/sodipodi-0.dtd"
   xmlns:inkscape="http://www.inkscape.org/namespaces/inkscape"
   width="16"
   height="16"
   viewBox="0 0 4.2333333 4.2333335"
   version="1.1"
   id="svg8"
   inkscape:version="1.0.1 (3bc2e813f5, 2020-09-07)"
   sodipodi:docname="status-icon.svg"
   inkscape:export-filename="export.png"
   inkscape:export-xdpi="264.00003"
   inkscape:export-ydpi="264.00003">
  <defs
     id="defs2" />
  <sodipodi:namedview
     id="base"
     pagecolor="#ffffff"
     bordercolor="#666666"
     borderopacity="1.0"
     inkscape:pageopacity="0.0"
     inkscape:pageshadow="2"
     inkscape:zoom="41.75"
     inkscape:cx="1.3829052"
     inkscape:cy="7.4530905"
     inkscape:document-units="px"
     inkscape:current-layer="layer3"
     inkscape:document-rotation="0"
     showgrid="true"
     units="px"
     inkscape:window-width="1920"
     inkscape:window-height="1027"
     inkscape:window-x="-8"
     inkscape:window-y="-8"
     inkscape:window-maximized="1">
    <inkscape:grid
       type="xygrid"
       id="grid10"
       empspacing="4"
       snapvisiblegridlinesonly="true" />
  </sodipodi:namedview>
  <metadata
     id="metadata5">
    <rdf:RDF>
      <cc:Work
         rdf:about="">
        <dc:format>image/svg+xml</dc:format>
        <dc:type
           rdf:resource="http://purl.org/dc/dcmitype/StillImage" />
        <dc:title></dc:title>
      </cc:Work>
    </rdf:RDF>
  </metadata>
  <g
     inkscape:label="reference"
     inkscape:groupmode="layer"
     id="layer1"
     style="display:inline"
     sodipodi:insensitive="true">
    <rect
       style="display:inline;fill:#ff0000;fill-opacity:1;stroke-width:0.352778;stroke-linejoin:round"
       id="rect40"
       width="4.2333331"
       height="4.2333331"
       x="0"
       y="0"
       rx="0"
       ry="0"
       inkscape:label="reference bg" />
  </g>
  <g
     inkscape:groupmode="layer"
     id="layer2"
     inkscape:label="icon parts"
     style="display:none"
     sodipodi:insensitive="true">
    <path
       style="fill:#4d4d4d;fill-rule:evenodd;stroke-width:0.264583"
       id="rect37"
       width="5.8208332"
       height="3.7041667"
       x="0.26458332"
       y="1.3229166"
       ry="0.5291667"
       rx="0.52916634"
       inkscape:label="rect"
       sodipodi:type="rect"
       d="M 0.79374966,1.3229166 H 5.5562502 c 0.2931581,0 0.5291663,0.2360084 0.5291663,0.5291667 v 2.6458333 c 0,0.2931583 -0.2360082,0.5291667 -0.5291663,0.5291667 H 0.79374966 c -0.29315815,0 -0.52916634,-0.2360084 -0.52916634,-0.5291667 V 1.8520833 c 0,-0.2931583 0.23600819,-0.5291667 0.52916634,-0.5291667 z" />
    <path
       style="color:#000000;font-style:normal;font-variant:normal;font-weight:normal;font-stretch:normal;font-size:medium;line-height:normal;font-family:sans-serif;font-variant-ligatures:normal;font-variant-position:normal;font-variant-caps:normal;font-variant-numeric:normal;font-variant-alternates:normal;font-variant-east-asian:normal;font-feature-settings:normal;font-variation-settings:normal;text-indent:0;text-align:start;text-decoration:none;text-decoration-line:none;text-decoration-style:solid;text-decoration-color:#000000;letter-spacing:normal;word-spacing:normal;text-transform:none;writing-mode:lr-tb;direction:ltr;text-orientation:mixed;dominant-baseline:auto;baseline-shift:baseline;text-anchor:start;white-space:normal;shape-padding:0;shape-margin:0;inline-size:0;clip-rule:nonzero;display:inline;overflow:visible;visibility:visible;opacity:1;isolation:auto;mix-blend-mode:normal;color-interpolation:sRGB;color-interpolation-filters:linearRGB;solid-color:#000000;solid-opacity:1;vector-effect:none;fill:#ffffff;fill-opacity:1;fill-rule:nonzero;stroke:none;stroke-width:0.466719;stroke-linecap:butt;stroke-linejoin:miter;stroke-miterlimit:4;stroke-dasharray:none;stroke-dashoffset:0;stroke-opacity:1;color-rendering:auto;image-rendering:auto;shape-rendering:auto;text-rendering:auto;enable-background:accumulate;stop-color:#000000;stop-opacity:1"
       d="m 1.5059151,4.2013087 -0.3350681,1.546 H 1.4381691 5.178847 l -0.3332371,-1.546 z M 1.8061947,4.7446315 H 4.5434993 L 4.6442028,5.2064558 H 1.7073221 Z"
       id="path59"
       inkscape:label="notch" />
    <path
       id="path39"
       style="font-style:normal;font-variant:normal;font-weight:bold;font-stretch:normal;font-size:5.71348px;line-height:1.25;font-family:sans-serif;-inkscape-font-specification:'sans-serif, Bold';font-variant-ligatures:normal;font-variant-caps:normal;font-variant-numeric:normal;font-variant-east-asian:normal;fill:#ffffff;fill-opacity:1;stroke:none;stroke-width:0.539853"
       d="m 8.3085938,6.7636719 c -1.1431199,0 -2.0514313,0.3573556 -2.7265626,1.0722656 -0.7595224,0.8179606 -1.140625,1.8288044 -1.140625,3.0332035 0,1.243042 0.3811026,2.247237 1.140625,3.013671 0.7134909,0.727792 1.6218024,1.091797 2.7265626,1.091797 0.9129614,0 1.6691661,-0.234912 2.2675782,-0.705078 0.452645,-0.347794 0.961573,-0.969986 1.529297,-1.865234 l 1.029297,-1.705078 c -0.0011,-0.0017 -0.0028,-0.0022 -0.0039,-0.0039 0.820899,-1.3010069 1.759631,-1.9511714 2.81836,-1.9511714 0.659787,0 1.178762,0.1983371 1.554687,0.5976563 0.375926,0.3993194 0.5625,0.9156931 0.5625,1.5468751 0,0.579657 -0.186574,1.094078 -0.5625,1.544922 -0.345237,0.405759 -0.864212,0.609375 -1.554687,0.609375 -0.455394,0 -0.944114,-0.254615 -1.460938,-0.71875 l -1.046875,1.736328 c 0.297259,0.258235 0.59546,0.480593 0.896485,0.625 0.437301,0.2061 0.952229,0.308594 1.542968,0.308594 1.14312,0 2.051432,-0.357356 2.726563,-1.072266 0.759522,-0.81796 1.140625,-1.828805 1.140625,-3.033203 0,-1.2430422 -0.381103,-2.2491898 -1.140625,-3.0156251 C 17.893924,7.1452485 16.98562,6.78125 15.880859,6.78125 c -0.912961,0 -1.669166,0.2368652 -2.267578,0.7070312 -0.442625,0.3400955 -0.941528,0.9489738 -1.49414,1.8125 l -1.066407,1.7539068 v 0.002 c 0.0017,0.0025 0.0042,0.0034 0.0059,0.0059 -0.820899,1.301008 -1.7596313,1.951172 -2.8183596,1.951172 -0.6597874,0 -1.1787621,-0.20029 -1.5546875,-0.59961 -0.3759252,-0.399318 -0.5625,-0.91374 -0.5625,-1.544921 0,-0.579657 0.1865748,-1.0960312 0.5625,-1.5468754 0.3452372,-0.4057597 0.864212,-0.6074219 1.5546875,-0.6074218 0.4548822,0 0.9431018,0.253691 1.4589844,0.7167968 L 10.751953,7.7011719 C 10.451167,7.4409148 10.148208,7.2175978 9.8398438,7.0722656 9.410215,6.8661655 8.8993336,6.7636719 8.3085938,6.7636719 Z"
       transform="scale(0.26458333)"
       inkscape:label="logo" />
  </g>
  <g
     inkscape:groupmode="layer"
     id="layer3"
     inkscape:label="merged">
    <path
       id="light"
       style="display:inline;fill:#ffffff;fill-rule:evenodd;stroke-width:0.190698"
       inkscape:label="light"
       d="M 0.38484849,0.79375 C 0.17164256,0.79375 0,0.96232736 0,1.1717262 v 1.889881 C 0,3.271006 0.17164256,3.4395833 0.38484849,3.4395833 H 0.77270357 L 0.90274027,2.8497338 H 3.3317206 l 0.129285,0.5898495 h 0.3874793 c 0.2132058,0 0.3848485,-0.1685773 0.3848485,-0.3779761 V 1.1717262 C 4.2333334,0.96232736 4.0616907,0.79375 3.8484849,0.79375 Z M 1.4063506,1.1270631 c 0.1136732,0 0.2119787,0.01937 0.2946496,0.05832 0.059337,0.027467 0.1176335,0.06967 0.175512,0.1188559 L 1.6739406,1.6312773 c -0.099268,-0.087522 -0.1932135,-0.135466 -0.2807439,-0.135466 -0.1328644,-1e-7 -0.2327277,0.038112 -0.2991596,0.1147955 -0.072337,0.085204 -0.10823883,0.1827927 -0.10823883,0.292341 0,0.1192856 0.035903,0.2165063 0.10823883,0.2919717 0.072337,0.075467 0.1722005,0.1133191 0.2991596,0.1133191 0.2037249,0 0.3843598,-0.1228732 0.5423207,-0.3687482 -3.272e-4,-4.725e-4 -8.073e-4,-6.427e-4 -0.00113,-0.00111 V 1.9379973 L 2.1395846,1.6065298 c 0.106336,-0.1631961 0.202337,-0.2782669 0.2875088,-0.3425409 0.115149,-0.088855 0.2606611,-0.1336205 0.436337,-0.1336205 0.2125827,0 0.3873611,0.06879 0.5246568,0.2063367 0.1461504,0.1448472 0.2194839,0.3349971 0.2194839,0.5699172 0,0.2276169 -0.073334,0.4186544 -0.2194839,0.5732392 -0.1299116,0.1351099 -0.3046928,0.2026457 -0.5246568,0.2026457 -0.1136731,0 -0.2127571,-0.01937 -0.2969045,-0.058322 C 2.5086016,2.5968949 2.4512205,2.5548721 2.3940205,2.5060688 L 2.5954646,2.1779235 c 0.099449,0.087716 0.1934911,0.1358354 0.2811199,0.1358354 0.1328641,0 0.2327275,-0.038482 0.2991595,-0.1151648 0.072337,-0.085204 0.1082388,-0.1824235 0.1082388,-0.2919718 0,-0.119286 -0.0359,-0.2168745 -0.1082388,-0.292341 C 3.103407,1.5388145 3.0035435,1.5013314 2.8765845,1.5013314 c -0.2037251,0 -0.3843599,0.1228735 -0.5423208,0.3687482 2.117e-4,3.212e-4 5.388e-4,4.157e-4 7.491e-4,7.357e-4 L 2.1369525,2.193056 C 2.0277086,2.3622472 1.9297785,2.4798341 1.8426786,2.545563 1.7275296,2.6344185 1.5820176,2.6788145 1.4063416,2.6788145 1.193759,2.6788145 1.0189778,2.6100223 0.88168487,2.4724779 0.73553427,2.3276311 0.66220093,2.13785 0.66220093,1.9029298 c 0,-0.2276171 0.0733333,-0.4186545 0.21948394,-0.5732393 C 1.0116056,1.1945987 1.1863866,1.1270631 1.4063506,1.1270631 Z m -0.2852538,2.1106132 -0.043972,0.201907 h 2.0794598 l -0.044724,-0.201907 z" />
    <path
       id="dark"
       style="display:inline;fill:#000000;fill-rule:evenodd;stroke-width:0.190698"
       inkscape:label="dark"
       d="M 0.38484848,0.79375 C 0.17164256,0.79375 0,0.96232736 0,1.1717263 V 3.0616072 C 0,3.271006 0.17164256,3.4395833 0.38484848,3.4395833 H 0.77270357 L 0.90274027,2.8497338 H 3.3317206 l 0.129285,0.5898495 h 0.3874793 c 0.2132058,0 0.3848485,-0.1685773 0.3848485,-0.3779761 V 1.1717263 C 4.2333334,0.96232736 4.0616907,0.79375 3.8484849,0.79375 Z M 1.4063506,1.1270631 c 0.1136732,0 0.2119787,0.01937 0.2946496,0.05832 0.059337,0.027467 0.1176335,0.06967 0.175512,0.1188558 L 1.6739406,1.6312773 C 1.5746723,1.5437556 1.4807271,1.4958113 1.3931967,1.4958113 1.2603325,1.4958112 1.160469,1.5339229 1.0940371,1.6106068 1.0217,1.6958107 0.98579827,1.7933996 0.98579827,1.9029478 c 0,0.1192856 0.035903,0.2165063 0.10823883,0.2919717 0.072337,0.075467 0.1722005,0.1133191 0.2991596,0.1133191 0.203725,0 0.3843598,-0.1228732 0.5423207,-0.3687482 -3.271e-4,-4.725e-4 -8.083e-4,-6.427e-4 -0.00114,-0.00112 v -3.73e-4 L 2.1395846,1.6065299 c 0.106336,-0.1631962 0.202337,-0.278267 0.2875088,-0.342541 0.115149,-0.088855 0.2606611,-0.1336205 0.436337,-0.1336205 0.2125827,0 0.3873611,0.06879 0.5246568,0.2063367 0.1461504,0.1448471 0.2194839,0.3349971 0.2194839,0.5699173 0,0.2276168 -0.073334,0.4186543 -0.2194839,0.5732391 -0.1299117,0.1351099 -0.3046928,0.2026456 -0.5246568,0.2026456 -0.1136731,0 -0.2127571,-0.01937 -0.2969045,-0.058321 C 2.5086014,2.5968952 2.4512205,2.5548725 2.3940205,2.5060689 L 2.5954646,2.1779235 c 0.099449,0.087716 0.1934911,0.1358354 0.2811199,0.1358354 0.1328641,0 0.2327275,-0.038481 0.2991594,-0.1151648 0.072338,-0.085204 0.1082388,-0.1824235 0.1082388,-0.2919717 0,-0.1192859 -0.035902,-0.2168745 -0.1082388,-0.2923411 -0.072337,-0.075467 -0.1722004,-0.1129499 -0.2991594,-0.1129499 -0.2037252,0 -0.3843599,0.1228735 -0.5423208,0.3687482 2.116e-4,3.212e-4 5.388e-4,4.157e-4 7.505e-4,7.37e-4 L 2.1369525,2.1930561 C 2.0277086,2.3622473 1.9297785,2.4798341 1.8426786,2.545563 1.7275296,2.6344188 1.5820175,2.6788144 1.4063416,2.6788144 1.193759,2.6788144 1.0189778,2.610022 0.88168487,2.4724779 0.73553427,2.3276311 0.66220094,2.13785 0.66220094,1.9029298 c 0,-0.2276171 0.0733333,-0.4186545 0.21948393,-0.5732393 C 1.0116056,1.1945987 1.1863866,1.1270631 1.4063506,1.1270631 Z m -0.2852538,2.1106132 -0.043972,0.201907 h 2.0794597 l -0.044724,-0.201907 z" />
  </g>
  <g
     inkscape:groupmode="layer"
     id="layer4"
     inkscape:label="emblems"
     style="display:inline">
    <g
       id="running"
       inkscape:label="running">
      <ellipse
         style="fill:#4c95ca;fill-opacity:1;stroke:#406c8c;stroke-width:0.24053;stroke-linejoin:miter;stroke-miterlimit:4;stroke-dasharray:none;stroke-opacity:1"
         id="path855"
         cx="1.3229166"
         cy="2.9104168"
         rx="1.2026516"
         ry="1.2026519" />
      <path
         sodipodi:type="star"
         style="fill:#ffffff;fill-opacity:1;stroke:none;stroke-width:0.264583;stroke-linejoin:miter;stroke-miterlimit:4;stroke-dasharray:none;stroke-opacity:1"
         id="path857"
         sodipodi:sides="3"
         sodipodi:cx="1.3229166"
         sodipodi:cy="3.5623767"
         sodipodi:r1="1.0583333"
         sodipodi:r2="0.52916664"
         sodipodi:arg1="0"
         sodipodi:arg2="1.0471976"
         inkscape:flatsided="false"
         inkscape:rounded="0"
         inkscape:randomized="0"
         d="m 2.3812499,3.5623767 -0.79375,0.4582718 -0.79374991,0.4582717 0,-0.9165435 0,-0.9165435 L 1.5875,3.104105 Z"
         inkscape:transform-center-x="-0.53345336"
         transform="matrix(1.0000001,0,0,0.86602545,-0.07937507,-0.17469225)"
         inkscape:transform-center-y="0.089623318" />
    </g>
  </g>
</svg>
